<mxfile host="app.diagrams.net" modified="2024-01-16T21:27:34.969Z" agent="Mozilla/5.0 (Windows NT 10.0; Win64; x64) AppleWebKit/537.36 (KHTML, like Gecko) Chrome/120.0.0.0 Safari/537.36 Edg/120.0.0.0" etag="_XvdBRoqhoxXk6yKi1c_" version="22.1.19" type="github">
  <diagram id="R2lEEEUBdFMjLlhIrx00" name="Page-1">
    <mxGraphModel dx="2026" dy="1145" grid="1" gridSize="10" guides="1" tooltips="1" connect="1" arrows="1" fold="1" page="1" pageScale="1" pageWidth="850" pageHeight="1100" math="0" shadow="0" extFonts="Permanent Marker^https://fonts.googleapis.com/css?family=Permanent+Marker">
      <root>
        <mxCell id="0" />
        <mxCell id="1" parent="0" />
        <mxCell id="VrteXZN0E3ys3nQp2Bep-2" value="Supporto" style="whiteSpace=wrap;html=1;align=center;" parent="1" vertex="1">
          <mxGeometry x="161" y="290" width="100" height="40" as="geometry" />
        </mxCell>
        <mxCell id="VrteXZN0E3ys3nQp2Bep-3" value="Film" style="whiteSpace=wrap;html=1;align=center;" parent="1" vertex="1">
          <mxGeometry x="480" y="290" width="100" height="40" as="geometry" />
        </mxCell>
        <mxCell id="VrteXZN0E3ys3nQp2Bep-115" style="edgeStyle=none;shape=connector;rounded=0;orthogonalLoop=1;jettySize=auto;html=1;exitX=0.5;exitY=1;exitDx=0;exitDy=0;labelBackgroundColor=default;strokeColor=default;align=center;verticalAlign=middle;fontFamily=Helvetica;fontSize=11;fontColor=default;endArrow=none;" parent="1" source="VrteXZN0E3ys3nQp2Bep-4" edge="1">
          <mxGeometry relative="1" as="geometry">
            <mxPoint x="530" y="540.0555555555555" as="targetPoint" />
          </mxGeometry>
        </mxCell>
        <mxCell id="VrteXZN0E3ys3nQp2Bep-4" value="Regista" style="whiteSpace=wrap;html=1;align=center;" parent="1" vertex="1">
          <mxGeometry x="380" y="500" width="100" height="40" as="geometry" />
        </mxCell>
        <mxCell id="VrteXZN0E3ys3nQp2Bep-116" style="edgeStyle=none;shape=connector;rounded=0;orthogonalLoop=1;jettySize=auto;html=1;exitX=0.5;exitY=1;exitDx=0;exitDy=0;labelBackgroundColor=default;strokeColor=default;align=center;verticalAlign=middle;fontFamily=Helvetica;fontSize=11;fontColor=default;endArrow=none;" parent="1" source="VrteXZN0E3ys3nQp2Bep-5" edge="1">
          <mxGeometry relative="1" as="geometry">
            <mxPoint x="530" y="540.0555555555555" as="targetPoint" />
          </mxGeometry>
        </mxCell>
        <mxCell id="VrteXZN0E3ys3nQp2Bep-125" style="edgeStyle=none;shape=connector;rounded=0;orthogonalLoop=1;jettySize=auto;html=1;exitX=1;exitY=0.5;exitDx=0;exitDy=0;entryX=0;entryY=0.5;entryDx=0;entryDy=0;labelBackgroundColor=default;strokeColor=default;align=center;verticalAlign=middle;fontFamily=Helvetica;fontSize=11;fontColor=default;endArrow=none;" parent="1" source="VrteXZN0E3ys3nQp2Bep-5" target="VrteXZN0E3ys3nQp2Bep-92" edge="1">
          <mxGeometry relative="1" as="geometry" />
        </mxCell>
        <mxCell id="VrteXZN0E3ys3nQp2Bep-5" value="Attore" style="whiteSpace=wrap;html=1;align=center;" parent="1" vertex="1">
          <mxGeometry x="580" y="500" width="100" height="40" as="geometry" />
        </mxCell>
        <mxCell id="VrteXZN0E3ys3nQp2Bep-100" style="edgeStyle=none;shape=connector;rounded=0;orthogonalLoop=1;jettySize=auto;html=1;exitX=1;exitY=0.5;exitDx=0;exitDy=0;entryX=0;entryY=0.5;entryDx=0;entryDy=0;labelBackgroundColor=default;strokeColor=default;align=center;verticalAlign=middle;fontFamily=Helvetica;fontSize=11;fontColor=default;endArrow=none;" parent="1" source="VrteXZN0E3ys3nQp2Bep-7" target="VrteXZN0E3ys3nQp2Bep-2" edge="1">
          <mxGeometry relative="1" as="geometry" />
        </mxCell>
        <mxCell id="VrteXZN0E3ys3nQp2Bep-7" value="PosizioneVideoteca" style="ellipse;whiteSpace=wrap;html=1;align=right;labelPosition=left;verticalLabelPosition=middle;verticalAlign=middle;fillColor=#FFFFFF;strokeColor=default;fillStyle=auto;gradientColor=none;" parent="1" vertex="1">
          <mxGeometry x="140" y="305" width="10" height="10" as="geometry" />
        </mxCell>
        <mxCell id="VrteXZN0E3ys3nQp2Bep-8" value="ID" style="ellipse;whiteSpace=wrap;html=1;align=right;fontStyle=4;labelBackgroundColor=none;labelPosition=left;verticalLabelPosition=middle;verticalAlign=middle;fillColor=#000000;" parent="1" vertex="1">
          <mxGeometry x="140" y="290" width="10" height="10" as="geometry" />
        </mxCell>
        <mxCell id="VrteXZN0E3ys3nQp2Bep-12" value="TipoSupporto" style="ellipse;whiteSpace=wrap;html=1;align=right;labelPosition=left;verticalLabelPosition=middle;verticalAlign=middle;fillColor=#FFFFFF;strokeColor=default;fillStyle=auto;gradientColor=none;" parent="1" vertex="1">
          <mxGeometry x="140" y="320" width="10" height="10" as="geometry" />
        </mxCell>
        <mxCell id="VrteXZN0E3ys3nQp2Bep-56" style="edgeStyle=none;shape=connector;rounded=0;orthogonalLoop=1;jettySize=auto;html=1;exitX=0;exitY=0.5;exitDx=0;exitDy=0;entryX=1;entryY=0.5;entryDx=0;entryDy=0;labelBackgroundColor=default;strokeColor=default;align=center;verticalAlign=middle;fontFamily=Helvetica;fontSize=11;fontColor=default;endArrow=none;" parent="1" source="VrteXZN0E3ys3nQp2Bep-20" target="VrteXZN0E3ys3nQp2Bep-2" edge="1">
          <mxGeometry relative="1" as="geometry" />
        </mxCell>
        <mxCell id="VrteXZN0E3ys3nQp2Bep-57" style="edgeStyle=none;shape=connector;rounded=0;orthogonalLoop=1;jettySize=auto;html=1;exitX=1;exitY=0.5;exitDx=0;exitDy=0;entryX=0;entryY=0.5;entryDx=0;entryDy=0;labelBackgroundColor=default;strokeColor=default;align=center;verticalAlign=middle;fontFamily=Helvetica;fontSize=11;fontColor=default;endArrow=none;" parent="1" source="VrteXZN0E3ys3nQp2Bep-20" target="VrteXZN0E3ys3nQp2Bep-3" edge="1">
          <mxGeometry relative="1" as="geometry" />
        </mxCell>
        <mxCell id="VrteXZN0E3ys3nQp2Bep-20" value="Archiviazione" style="shape=rhombus;perimeter=rhombusPerimeter;whiteSpace=wrap;html=1;align=center;" parent="1" vertex="1">
          <mxGeometry x="310" y="280" width="120" height="60" as="geometry" />
        </mxCell>
        <mxCell id="VrteXZN0E3ys3nQp2Bep-108" style="edgeStyle=none;shape=connector;rounded=0;orthogonalLoop=1;jettySize=auto;html=1;exitX=0;exitY=0.5;exitDx=0;exitDy=0;entryX=1;entryY=0.25;entryDx=0;entryDy=0;labelBackgroundColor=default;strokeColor=default;align=center;verticalAlign=middle;fontFamily=Helvetica;fontSize=11;fontColor=default;endArrow=none;" parent="1" source="VrteXZN0E3ys3nQp2Bep-32" target="VrteXZN0E3ys3nQp2Bep-3" edge="1">
          <mxGeometry relative="1" as="geometry" />
        </mxCell>
        <mxCell id="VrteXZN0E3ys3nQp2Bep-32" value="ISAN" style="ellipse;whiteSpace=wrap;html=1;align=left;fontStyle=4;labelBackgroundColor=none;labelPosition=right;verticalLabelPosition=middle;verticalAlign=middle;fillColor=#000000;" parent="1" vertex="1">
          <mxGeometry x="591" y="277" width="10" height="10" as="geometry" />
        </mxCell>
        <mxCell id="VrteXZN0E3ys3nQp2Bep-33" value="Titolo" style="ellipse;whiteSpace=wrap;html=1;align=left;labelPosition=right;verticalLabelPosition=middle;verticalAlign=middle;fillColor=#FFFFFF;strokeColor=default;fillStyle=auto;gradientColor=none;" parent="1" vertex="1">
          <mxGeometry x="591" y="292" width="10" height="10" as="geometry" />
        </mxCell>
        <mxCell id="VrteXZN0E3ys3nQp2Bep-111" style="edgeStyle=none;shape=connector;rounded=0;orthogonalLoop=1;jettySize=auto;html=1;exitX=0;exitY=0.5;exitDx=0;exitDy=0;entryX=1;entryY=0.5;entryDx=0;entryDy=0;labelBackgroundColor=default;strokeColor=default;align=center;verticalAlign=middle;fontFamily=Helvetica;fontSize=11;fontColor=default;endArrow=none;" parent="1" source="VrteXZN0E3ys3nQp2Bep-34" target="VrteXZN0E3ys3nQp2Bep-3" edge="1">
          <mxGeometry relative="1" as="geometry" />
        </mxCell>
        <mxCell id="VrteXZN0E3ys3nQp2Bep-34" value="AnnoProduzione" style="ellipse;whiteSpace=wrap;html=1;align=left;labelPosition=right;verticalLabelPosition=middle;verticalAlign=middle;fillColor=#FFFFFF;strokeColor=default;fillStyle=auto;gradientColor=none;" parent="1" vertex="1">
          <mxGeometry x="591" y="305" width="10" height="10" as="geometry" />
        </mxCell>
        <mxCell id="VrteXZN0E3ys3nQp2Bep-35" value="NazionalitÃ " style="ellipse;whiteSpace=wrap;html=1;align=left;labelPosition=right;verticalLabelPosition=middle;verticalAlign=middle;fillColor=#FFFFFF;strokeColor=default;fillStyle=auto;gradientColor=none;" parent="1" vertex="1">
          <mxGeometry x="591" y="319" width="10" height="10" as="geometry" />
        </mxCell>
        <mxCell id="VrteXZN0E3ys3nQp2Bep-109" style="edgeStyle=none;shape=connector;rounded=0;orthogonalLoop=1;jettySize=auto;html=1;exitX=0;exitY=0.5;exitDx=0;exitDy=0;entryX=1;entryY=0.75;entryDx=0;entryDy=0;labelBackgroundColor=default;strokeColor=default;align=center;verticalAlign=middle;fontFamily=Helvetica;fontSize=11;fontColor=default;endArrow=none;" parent="1" source="VrteXZN0E3ys3nQp2Bep-36" target="VrteXZN0E3ys3nQp2Bep-3" edge="1">
          <mxGeometry relative="1" as="geometry" />
        </mxCell>
        <mxCell id="VrteXZN0E3ys3nQp2Bep-36" value="Lingua" style="ellipse;whiteSpace=wrap;html=1;align=left;labelPosition=right;verticalLabelPosition=middle;verticalAlign=middle;fillColor=#FFFFFF;strokeColor=default;fillStyle=auto;gradientColor=none;" parent="1" vertex="1">
          <mxGeometry x="591" y="333" width="10" height="10" as="geometry" />
        </mxCell>
        <mxCell id="VrteXZN0E3ys3nQp2Bep-64" style="edgeStyle=none;shape=connector;rounded=0;orthogonalLoop=1;jettySize=auto;html=1;exitX=0.5;exitY=0;exitDx=0;exitDy=0;entryX=0.75;entryY=1;entryDx=0;entryDy=0;labelBackgroundColor=default;strokeColor=default;align=center;verticalAlign=middle;fontFamily=Helvetica;fontSize=11;fontColor=default;endArrow=none;" parent="1" source="VrteXZN0E3ys3nQp2Bep-61" target="VrteXZN0E3ys3nQp2Bep-3" edge="1">
          <mxGeometry relative="1" as="geometry" />
        </mxCell>
        <mxCell id="VrteXZN0E3ys3nQp2Bep-66" style="edgeStyle=none;shape=connector;rounded=0;orthogonalLoop=1;jettySize=auto;html=1;exitX=0.5;exitY=1;exitDx=0;exitDy=0;entryX=0.5;entryY=0;entryDx=0;entryDy=0;labelBackgroundColor=default;strokeColor=default;align=center;verticalAlign=middle;fontFamily=Helvetica;fontSize=11;fontColor=default;endArrow=none;" parent="1" source="VrteXZN0E3ys3nQp2Bep-61" target="VrteXZN0E3ys3nQp2Bep-5" edge="1">
          <mxGeometry relative="1" as="geometry" />
        </mxCell>
        <mxCell id="VrteXZN0E3ys3nQp2Bep-61" value="Interpretazione" style="shape=rhombus;perimeter=rhombusPerimeter;whiteSpace=wrap;html=1;align=center;fontFamily=Helvetica;fontSize=11;fontColor=default;" parent="1" vertex="1">
          <mxGeometry x="570" y="410" width="120" height="60" as="geometry" />
        </mxCell>
        <mxCell id="VrteXZN0E3ys3nQp2Bep-63" style="edgeStyle=none;shape=connector;rounded=0;orthogonalLoop=1;jettySize=auto;html=1;exitX=0.5;exitY=0;exitDx=0;exitDy=0;entryX=0.25;entryY=1;entryDx=0;entryDy=0;labelBackgroundColor=default;strokeColor=default;align=center;verticalAlign=middle;fontFamily=Helvetica;fontSize=11;fontColor=default;endArrow=none;" parent="1" source="VrteXZN0E3ys3nQp2Bep-62" target="VrteXZN0E3ys3nQp2Bep-3" edge="1">
          <mxGeometry relative="1" as="geometry" />
        </mxCell>
        <mxCell id="VrteXZN0E3ys3nQp2Bep-65" style="edgeStyle=none;shape=connector;rounded=0;orthogonalLoop=1;jettySize=auto;html=1;exitX=0.5;exitY=1;exitDx=0;exitDy=0;entryX=0.5;entryY=0;entryDx=0;entryDy=0;labelBackgroundColor=default;strokeColor=default;align=center;verticalAlign=middle;fontFamily=Helvetica;fontSize=11;fontColor=default;endArrow=none;" parent="1" source="VrteXZN0E3ys3nQp2Bep-62" target="VrteXZN0E3ys3nQp2Bep-4" edge="1">
          <mxGeometry relative="1" as="geometry" />
        </mxCell>
        <mxCell id="VrteXZN0E3ys3nQp2Bep-62" value="Direzione" style="shape=rhombus;perimeter=rhombusPerimeter;whiteSpace=wrap;html=1;align=center;fontFamily=Helvetica;fontSize=11;fontColor=default;" parent="1" vertex="1">
          <mxGeometry x="370" y="410" width="120" height="60" as="geometry" />
        </mxCell>
        <mxCell id="VrteXZN0E3ys3nQp2Bep-68" value="(1,1)" style="text;html=1;strokeColor=none;fillColor=none;align=center;verticalAlign=middle;whiteSpace=wrap;rounded=0;fontSize=11;fontFamily=Helvetica;fontColor=default;" parent="1" vertex="1">
          <mxGeometry x="480" y="329" width="60" height="30" as="geometry" />
        </mxCell>
        <mxCell id="VrteXZN0E3ys3nQp2Bep-69" value="(0,N)" style="text;html=1;strokeColor=none;fillColor=none;align=center;verticalAlign=middle;whiteSpace=wrap;rounded=0;fontSize=11;fontFamily=Helvetica;fontColor=default;" parent="1" vertex="1">
          <mxGeometry x="420" y="470" width="60" height="30" as="geometry" />
        </mxCell>
        <mxCell id="VrteXZN0E3ys3nQp2Bep-70" value="(1,1)" style="text;html=1;strokeColor=none;fillColor=none;align=center;verticalAlign=middle;whiteSpace=wrap;rounded=0;fontSize=11;fontFamily=Helvetica;fontColor=default;" parent="1" vertex="1">
          <mxGeometry x="250" y="305" width="60" height="30" as="geometry" />
        </mxCell>
        <mxCell id="VrteXZN0E3ys3nQp2Bep-71" value="(1,N)" style="text;html=1;strokeColor=none;fillColor=none;align=center;verticalAlign=middle;whiteSpace=wrap;rounded=0;movable=1;resizable=1;rotatable=1;deletable=1;editable=1;locked=0;connectable=1;fontSize=11;fontFamily=Helvetica;fontColor=default;" parent="1" vertex="1">
          <mxGeometry x="520" y="329" width="60" height="30" as="geometry" />
        </mxCell>
        <mxCell id="VrteXZN0E3ys3nQp2Bep-72" value="(0,N)" style="text;html=1;strokeColor=none;fillColor=none;align=center;verticalAlign=middle;whiteSpace=wrap;rounded=0;fontSize=11;fontFamily=Helvetica;fontColor=default;" parent="1" vertex="1">
          <mxGeometry x="580" y="470" width="60" height="30" as="geometry" />
        </mxCell>
        <mxCell id="VrteXZN0E3ys3nQp2Bep-117" style="edgeStyle=none;shape=connector;rounded=0;orthogonalLoop=1;jettySize=auto;html=1;exitX=0.5;exitY=0;exitDx=0;exitDy=0;labelBackgroundColor=default;strokeColor=default;align=center;verticalAlign=middle;fontFamily=Helvetica;fontSize=11;fontColor=default;endArrow=none;" parent="1" source="VrteXZN0E3ys3nQp2Bep-73" edge="1">
          <mxGeometry relative="1" as="geometry">
            <mxPoint x="530.0555555555554" y="590" as="targetPoint" />
          </mxGeometry>
        </mxCell>
        <mxCell id="VrteXZN0E3ys3nQp2Bep-119" style="edgeStyle=none;shape=connector;rounded=0;orthogonalLoop=1;jettySize=auto;html=1;exitX=1;exitY=0.25;exitDx=0;exitDy=0;entryX=0;entryY=0.5;entryDx=0;entryDy=0;labelBackgroundColor=default;strokeColor=default;align=center;verticalAlign=middle;fontFamily=Helvetica;fontSize=11;fontColor=default;endArrow=none;" parent="1" source="VrteXZN0E3ys3nQp2Bep-73" target="VrteXZN0E3ys3nQp2Bep-85" edge="1">
          <mxGeometry relative="1" as="geometry" />
        </mxCell>
        <mxCell id="VrteXZN0E3ys3nQp2Bep-120" style="edgeStyle=none;shape=connector;rounded=0;orthogonalLoop=1;jettySize=auto;html=1;exitX=1;exitY=0.75;exitDx=0;exitDy=0;entryX=0;entryY=0.5;entryDx=0;entryDy=0;labelBackgroundColor=default;strokeColor=default;align=center;verticalAlign=middle;fontFamily=Helvetica;fontSize=11;fontColor=default;endArrow=none;" parent="1" source="VrteXZN0E3ys3nQp2Bep-73" target="VrteXZN0E3ys3nQp2Bep-89" edge="1">
          <mxGeometry relative="1" as="geometry" />
        </mxCell>
        <mxCell id="VrteXZN0E3ys3nQp2Bep-73" value="Cast" style="whiteSpace=wrap;html=1;align=center;fontFamily=Helvetica;fontSize=11;fontColor=default;allowArrows=1;snapToPoint=0;noLabel=0;" parent="1" vertex="1">
          <mxGeometry x="480" y="589" width="100" height="40" as="geometry" />
        </mxCell>
        <mxCell id="VrteXZN0E3ys3nQp2Bep-85" value="Codice" style="ellipse;whiteSpace=wrap;html=1;align=left;fontStyle=4;labelBackgroundColor=none;labelPosition=right;verticalLabelPosition=middle;verticalAlign=middle;fillColor=#000000;" parent="1" vertex="1">
          <mxGeometry x="591" y="576" width="10" height="10" as="geometry" />
        </mxCell>
        <mxCell id="VrteXZN0E3ys3nQp2Bep-86" value="Cognome" style="ellipse;whiteSpace=wrap;html=1;align=left;labelPosition=right;verticalLabelPosition=middle;verticalAlign=middle;fillColor=#FFFFFF;strokeColor=default;fillStyle=auto;gradientColor=none;" parent="1" vertex="1">
          <mxGeometry x="591" y="591" width="10" height="10" as="geometry" />
        </mxCell>
        <mxCell id="VrteXZN0E3ys3nQp2Bep-118" style="edgeStyle=none;shape=connector;rounded=0;orthogonalLoop=1;jettySize=auto;html=1;exitX=0;exitY=0.5;exitDx=0;exitDy=0;entryX=1;entryY=0.5;entryDx=0;entryDy=0;labelBackgroundColor=default;strokeColor=default;align=center;verticalAlign=middle;fontFamily=Helvetica;fontSize=11;fontColor=default;endArrow=none;" parent="1" source="VrteXZN0E3ys3nQp2Bep-87" target="VrteXZN0E3ys3nQp2Bep-73" edge="1">
          <mxGeometry relative="1" as="geometry" />
        </mxCell>
        <mxCell id="VrteXZN0E3ys3nQp2Bep-87" value="Nome" style="ellipse;whiteSpace=wrap;html=1;align=left;labelPosition=right;verticalLabelPosition=middle;verticalAlign=middle;fillColor=#FFFFFF;strokeColor=default;fillStyle=auto;gradientColor=none;" parent="1" vertex="1">
          <mxGeometry x="591" y="604" width="10" height="10" as="geometry" />
        </mxCell>
        <mxCell id="VrteXZN0E3ys3nQp2Bep-88" value="DataDiNascita" style="ellipse;whiteSpace=wrap;html=1;align=left;labelPosition=right;verticalLabelPosition=middle;verticalAlign=middle;fillColor=#FFFFFF;strokeColor=default;fillStyle=auto;gradientColor=none;" parent="1" vertex="1">
          <mxGeometry x="591" y="618" width="10" height="10" as="geometry" />
        </mxCell>
        <mxCell id="VrteXZN0E3ys3nQp2Bep-89" value="LuogoDiNascita" style="ellipse;whiteSpace=wrap;html=1;align=left;labelPosition=right;verticalLabelPosition=middle;verticalAlign=middle;fillColor=#FFFFFF;strokeColor=default;fillStyle=auto;gradientColor=none;" parent="1" vertex="1">
          <mxGeometry x="591" y="632" width="10" height="10" as="geometry" />
        </mxCell>
        <mxCell id="VrteXZN0E3ys3nQp2Bep-92" value="Foto (opzionale)" style="ellipse;whiteSpace=wrap;html=1;align=left;labelPosition=right;verticalLabelPosition=middle;verticalAlign=middle;fillColor=#FFFFFF;strokeColor=default;fillStyle=auto;gradientColor=none;" parent="1" vertex="1">
          <mxGeometry x="690" y="515" width="10" height="10" as="geometry" />
        </mxCell>
        <mxCell id="VrteXZN0E3ys3nQp2Bep-101" style="edgeStyle=none;shape=connector;rounded=0;orthogonalLoop=1;jettySize=auto;html=1;exitX=1;exitY=0.5;exitDx=0;exitDy=0;entryX=-0.002;entryY=0.88;entryDx=0;entryDy=0;entryPerimeter=0;labelBackgroundColor=default;strokeColor=default;align=center;verticalAlign=middle;fontFamily=Helvetica;fontSize=11;fontColor=default;endArrow=none;" parent="1" source="VrteXZN0E3ys3nQp2Bep-12" target="VrteXZN0E3ys3nQp2Bep-2" edge="1">
          <mxGeometry relative="1" as="geometry" />
        </mxCell>
        <mxCell id="VrteXZN0E3ys3nQp2Bep-102" style="edgeStyle=none;shape=connector;rounded=0;orthogonalLoop=1;jettySize=auto;html=1;exitX=1;exitY=0.5;exitDx=0;exitDy=0;entryX=0;entryY=0.128;entryDx=0;entryDy=0;entryPerimeter=0;labelBackgroundColor=default;strokeColor=default;align=center;verticalAlign=middle;fontFamily=Helvetica;fontSize=11;fontColor=default;endArrow=none;" parent="1" source="VrteXZN0E3ys3nQp2Bep-8" target="VrteXZN0E3ys3nQp2Bep-2" edge="1">
          <mxGeometry relative="1" as="geometry" />
        </mxCell>
        <mxCell id="VrteXZN0E3ys3nQp2Bep-104" value="(1,N)" style="text;html=1;strokeColor=none;fillColor=none;align=center;verticalAlign=middle;whiteSpace=wrap;rounded=0;movable=1;resizable=1;rotatable=1;deletable=1;editable=1;locked=0;connectable=1;fontSize=11;fontFamily=Helvetica;fontColor=default;" parent="1" vertex="1">
          <mxGeometry x="420" y="305" width="60" height="30" as="geometry" />
        </mxCell>
        <mxCell id="VrteXZN0E3ys3nQp2Bep-112" style="edgeStyle=none;shape=connector;rounded=0;orthogonalLoop=1;jettySize=auto;html=1;exitX=0;exitY=0.5;exitDx=0;exitDy=0;entryX=0.998;entryY=0.383;entryDx=0;entryDy=0;entryPerimeter=0;labelBackgroundColor=default;strokeColor=default;align=center;verticalAlign=middle;fontFamily=Helvetica;fontSize=11;fontColor=default;endArrow=none;" parent="1" source="VrteXZN0E3ys3nQp2Bep-33" target="VrteXZN0E3ys3nQp2Bep-3" edge="1">
          <mxGeometry relative="1" as="geometry" />
        </mxCell>
        <mxCell id="VrteXZN0E3ys3nQp2Bep-113" style="edgeStyle=none;shape=connector;rounded=0;orthogonalLoop=1;jettySize=auto;html=1;exitX=0;exitY=0.5;exitDx=0;exitDy=0;entryX=0.998;entryY=0.647;entryDx=0;entryDy=0;entryPerimeter=0;labelBackgroundColor=default;strokeColor=default;align=center;verticalAlign=middle;fontFamily=Helvetica;fontSize=11;fontColor=default;endArrow=none;" parent="1" source="VrteXZN0E3ys3nQp2Bep-35" target="VrteXZN0E3ys3nQp2Bep-3" edge="1">
          <mxGeometry relative="1" as="geometry" />
        </mxCell>
        <mxCell id="VrteXZN0E3ys3nQp2Bep-75" value="" style="shape=flexArrow;endArrow=classic;rounded=0;html=1;labelBackgroundColor=default;strokeColor=default;align=center;verticalAlign=middle;fontFamily=Helvetica;fontSize=11;fontColor=default;snapToPoint=0;" parent="1" edge="1">
          <mxGeometry width="50" height="50" relative="1" as="geometry">
            <mxPoint x="529.86" y="540" as="sourcePoint" />
            <mxPoint x="529.86" y="590" as="targetPoint" />
            <Array as="points" />
          </mxGeometry>
        </mxCell>
        <mxCell id="VrteXZN0E3ys3nQp2Bep-121" style="edgeStyle=none;shape=connector;rounded=0;orthogonalLoop=1;jettySize=auto;html=1;exitX=0;exitY=0.5;exitDx=0;exitDy=0;entryX=1.004;entryY=0.672;entryDx=0;entryDy=0;entryPerimeter=0;labelBackgroundColor=default;strokeColor=default;align=center;verticalAlign=middle;fontFamily=Helvetica;fontSize=11;fontColor=default;endArrow=none;" parent="1" source="VrteXZN0E3ys3nQp2Bep-88" target="VrteXZN0E3ys3nQp2Bep-73" edge="1">
          <mxGeometry relative="1" as="geometry" />
        </mxCell>
        <mxCell id="VrteXZN0E3ys3nQp2Bep-124" style="edgeStyle=none;shape=connector;rounded=0;orthogonalLoop=1;jettySize=auto;html=1;exitX=0;exitY=0.5;exitDx=0;exitDy=0;entryX=1.004;entryY=0.376;entryDx=0;entryDy=0;entryPerimeter=0;labelBackgroundColor=default;strokeColor=default;align=center;verticalAlign=middle;fontFamily=Helvetica;fontSize=11;fontColor=default;endArrow=none;" parent="1" source="VrteXZN0E3ys3nQp2Bep-86" target="VrteXZN0E3ys3nQp2Bep-73" edge="1">
          <mxGeometry relative="1" as="geometry" />
        </mxCell>
      </root>
    </mxGraphModel>
  </diagram>
</mxfile>
